<svg width="526" height="351" viewBox="0 0 526 351" fill="none" xmlns="http://www.w3.org/2000/svg">
<g clip-path="url(#clip0_268537_157)">
<g opacity="0.42">
<rect width="13" height="31.3054" transform="matrix(-1 0 0 1 32 256.9)" fill="#2AA876"/>
<line y1="-0.627119" x2="39" y2="-0.627119" transform="matrix(4.37114e-08 1 1 -4.37114e-08 26 253)" stroke="#2AA876" stroke-width="1.25424"/>
</g>
<rect width="13" height="24.8838" transform="matrix(-1 0 0 1 507 178.1)" fill="#2AA876"/>
<line y1="-0.627119" x2="31" y2="-0.627119" transform="matrix(4.37114e-08 1 1 -4.37114e-08 501 175)" stroke="#2AA876" stroke-width="1.25424"/>
<rect width="13" height="14" transform="matrix(-1 0 0 1 146 260)" fill="#2AA876"/>
<line y1="-0.627119" x2="31" y2="-0.627119" transform="matrix(4.37114e-08 1 1 -4.37114e-08 140 253)" stroke="#2AA876" stroke-width="1.25424"/>
<rect width="13" height="14" transform="matrix(-1 0 0 1 412 242)" fill="#2AA876"/>
<line y1="-0.627119" x2="31" y2="-0.627119" transform="matrix(4.37114e-08 1 1 -4.37114e-08 406 235)" stroke="#2AA876" stroke-width="1.25424"/>
<rect width="13" height="25.7419" transform="matrix(-1 0 0 1 165 234.871)" fill="#2AA876"/>
<line y1="-0.627119" x2="36" y2="-0.627119" transform="matrix(4.37114e-08 1 1 -4.37114e-08 159 228)" stroke="#2AA876" stroke-width="1.25424"/>
<rect width="13" height="14" transform="matrix(-1 0 0 1 450 228)" fill="#2AA876"/>
<line y1="-0.627119" x2="31" y2="-0.627119" transform="matrix(4.37114e-08 1 1 -4.37114e-08 444 221)" stroke="#2AA876" stroke-width="1.25424"/>
<rect width="13" height="25.7419" transform="matrix(-1 0 0 1 469 202.871)" fill="#2AA876"/>
<line y1="-0.627119" x2="36" y2="-0.627119" transform="matrix(4.37114e-08 1 1 -4.37114e-08 463 196)" stroke="#2AA876" stroke-width="1.25424"/>
<rect width="13" height="15" transform="matrix(-1 0 0 1 260 284)" fill="#2AA876"/>
<line y1="-0.627119" x2="28" y2="-0.627119" transform="matrix(4.37114e-08 1 1 -4.37114e-08 254 274)" stroke="#2AA876" stroke-width="1.25424"/>
<rect width="13" height="16" transform="matrix(-1 0 0 1 184 222)" fill="#2AA876"/>
<line y1="-0.627119" x2="36" y2="-0.627119" transform="matrix(4.37114e-08 1 1 -4.37114e-08 178 208)" stroke="#2AA876" stroke-width="1.25424"/>
<rect width="13" height="24.8838" transform="matrix(-1 0 0 1 70 201.1)" fill="#EF454A"/>
<line y1="-0.627119" x2="44" y2="-0.627119" transform="matrix(4.37114e-08 1 1 -4.37114e-08 64 188)" stroke="#EF454A" stroke-width="1.25424"/>
<g opacity="0.18">
<rect width="13" height="24.8838" transform="matrix(-1 0 0 1 13 232.1)" fill="#EF454A"/>
<line y1="-0.627119" x2="44" y2="-0.627119" transform="matrix(4.37114e-08 1 1 -4.37114e-08 7 219)" stroke="#EF454A" stroke-width="1.25424"/>
</g>
<rect width="13" height="10" transform="matrix(-1 0 0 1 374 298)" fill="#EF454A"/>
<line y1="-0.627119" x2="15" y2="-0.627119" transform="matrix(4.37114e-08 1 1 -4.37114e-08 368 296)" stroke="#EF454A" stroke-width="1.25424"/>
<rect width="13" height="10" transform="matrix(-1 0 0 1 488 203)" fill="#EF454A"/>
<line y1="-0.627119" x2="15" y2="-0.627119" transform="matrix(4.37114e-08 1 1 -4.37114e-08 482 201)" stroke="#EF454A" stroke-width="1.25424"/>
<rect width="13" height="14" transform="matrix(-1 0 0 1 336 278)" fill="#EF454A"/>
<line y1="-0.627119" x2="38" y2="-0.627119" transform="matrix(4.37114e-08 1 1 -4.37114e-08 330 276)" stroke="#EF454A" stroke-width="1.25424"/>
<rect width="13" height="6" transform="matrix(-1 0 0 1 355 292)" fill="#EF454A"/>
<line y1="-0.627119" x2="21" y2="-0.627119" transform="matrix(4.37114e-08 1 1 -4.37114e-08 349 290)" stroke="#EF454A" stroke-width="1.25424"/>
<rect width="13" height="28" transform="matrix(-1 0 0 1 317 250)" fill="#EF454A"/>
<line y1="-0.627119" x2="44" y2="-0.627119" transform="matrix(4.37114e-08 1 1 -4.37114e-08 311 237)" stroke="#EF454A" stroke-width="1.25424"/>
<rect width="13" height="61.6439" transform="matrix(-1 0 0 1 203 241.452)" fill="#EF454A"/>
<line y1="-0.627119" x2="109" y2="-0.627119" transform="matrix(4.37114e-08 1 1 -4.37114e-08 197 209)" stroke="#EF454A" stroke-width="1.25424"/>
<rect width="13" height="33.9324" transform="matrix(-1 0 0 1 89 225.864)" fill="#EF454A"/>
<line y1="-0.627119" x2="52" y2="-0.627119" transform="matrix(4.37114e-08 1 1 -4.37114e-08 83 222)" stroke="#EF454A" stroke-width="1.25424"/>
<rect width="13" height="5" transform="matrix(-1 0 0 1 431 242)" fill="#EF454A"/>
<line y1="-0.627119" x2="52" y2="-0.627119" transform="matrix(4.37114e-08 1 1 -4.37114e-08 425 212)" stroke="#EF454A" stroke-width="1.25424"/>
<rect width="13" height="25" transform="matrix(-1 0 0 1 222 303)" fill="#EF454A"/>
<line y1="-0.627119" x2="52" y2="-0.627119" transform="matrix(4.37114e-08 1 1 -4.37114e-08 216 299)" stroke="#EF454A" stroke-width="1.25424"/>
<rect width="13" height="48" transform="matrix(-1 0 0 1 108 260)" fill="#EF454A"/>
<line y1="-0.627119" x2="52" y2="-0.627119" transform="matrix(4.37114e-08 1 1 -4.37114e-08 102 256)" stroke="#EF454A" stroke-width="1.25424"/>
<g opacity="0.87">
<rect width="13" height="33.7135" transform="matrix(-1 0 0 1 51 222.2)" fill="#2AA876"/>
<line y1="-0.627119" x2="55" y2="-0.627119" transform="matrix(4.37114e-08 1 1 -4.37114e-08 45 212)" stroke="#2AA876" stroke-width="1.25424"/>
</g>
<rect width="13" height="33.7135" transform="matrix(-1 0 0 1 279 250.2)" fill="#2AA876"/>
<line y1="-0.627119" x2="48" y2="-0.627119" transform="matrix(4.37114e-08 1 1 -4.37114e-08 273 240)" stroke="#2AA876" stroke-width="1.25424"/>
<rect width="13" height="42" transform="matrix(-1 0 0 1 127 266)" fill="#2AA876"/>
<line y1="-0.627119" x2="55" y2="-0.627119" transform="matrix(4.37114e-08 1 1 -4.37114e-08 121 253)" stroke="#2AA876" stroke-width="1.25424"/>
<rect width="13" fill="#2AA876" transform="matrix(-1 0 0 1 526 0)">
<animate attributeName="height" values="135.9;60;95;135.9" dur="4s" repeatCount="indefinite"/>
<animate attributeName="y" values="42;118;83;42" dur="4s" repeatCount="indefinite"/>
</rect>
<line x2="178" stroke="#2AA876" stroke-width="1.25424" transform="matrix(4.37114e-08 1 1 -4.37114e-08 519 0)"/>
<rect width="13" height="52" transform="matrix(-1 0 0 1 393 256)" fill="#2AA876"/>
<line y1="-0.627119" x2="57" y2="-0.627119" transform="matrix(4.37114e-08 1 1 -4.37114e-08 387 253)" stroke="#2AA876" stroke-width="1.25424"/>
<rect width="13" height="4" transform="matrix(-1 0 0 1 241 299)" fill="#2AA876"/>
<line y1="-0.627119" x2="20" y2="-0.627119" transform="matrix(4.37114e-08 1 1 -4.37114e-08 235 288)" stroke="#2AA876" stroke-width="1.25424"/>
<rect width="13" height="2" transform="matrix(-1 0 0 1 298 248)" fill="#2AA876"/>
<line y1="-0.627119" x2="29" y2="-0.627119" transform="matrix(4.37114e-08 1 1 -4.37114e-08 292 227)" stroke="#2AA876" stroke-width="1.25424"/>
</g>
<defs>
<clipPath id="clip0_268537_157">
<rect width="526" height="351" fill="white"/>
</clipPath>
</defs>
</svg>
